<svg width="76" height="75" viewBox="0 0 76 75" fill="none" xmlns="http://www.w3.org/2000/svg">
<circle cx="37.5" cy="37.5" r="37.5" transform="matrix(-1 0 0 1 75.4999 0)" fill="#FF7E1E"/>
<path d="M46.1998 23.15L50.9004 18.4494C51.2849 18.0651 51.8062 17.8492 52.3498 17.8492C52.8933 17.8492 53.4147 18.0651 53.7991 18.4494L57.0504 21.7007C57.4347 22.0851 57.6506 22.6065 57.6506 23.15C57.6506 23.6936 57.4347 24.215 57.0504 24.5994L52.3498 29.3M46.1998 23.15L34.5006 34.8493C34.1161 35.2336 33.9001 35.755 33.9 36.2986V39.5499C33.9 40.0936 34.1159 40.615 34.5004 40.9994C34.8848 41.3839 35.4062 41.5999 35.9499 41.5999H39.2012C39.7448 41.5997 40.2662 41.3837 40.6505 40.9992L52.3498 29.3M46.1998 23.15L52.3498 29.3M25.7 41.5999H23.6501C22.5627 41.5999 21.5199 42.0318 20.751 42.8007C19.9821 43.5696 19.5501 44.6124 19.5501 45.6998V45.6998C19.5501 46.7872 19.9821 47.83 20.751 48.5989C21.5199 49.3678 22.5627 49.7998 23.6501 49.7998H52.3498C53.4371 49.7998 54.48 50.2317 55.2489 51.0006C56.0178 51.7695 56.4497 52.8123 56.4497 53.8997C56.4497 54.9871 56.0178 56.0299 55.2489 56.7988C54.48 57.5677 53.4371 57.9997 52.3498 57.9997H44.1498" stroke="white" stroke-width="4" stroke-linecap="round" stroke-linejoin="round"/>
</svg>
