<svg width="76" height="75" viewBox="0 0 76 75" fill="none" xmlns="http://www.w3.org/2000/svg">
<circle cx="37.5" cy="37.5" r="37.5" transform="matrix(-1 0 0 1 75.4999 0)" fill="#FF7E1E"/>
<g clip-path="url(#clip0_253364_57)">
<path d="M39.4389 17.3999L53.7888 22.7811C54.5705 23.0741 55.2441 23.5987 55.7196 24.2849C56.195 24.971 56.4498 25.7859 56.4497 26.6207V37.6147C56.4497 41.0411 55.4957 44.3998 53.6943 47.3145C51.893 50.2292 49.3157 52.5847 46.251 54.1171L39.3754 57.5549C38.9483 57.7685 38.4774 57.8797 37.9999 57.8797C37.5223 57.8797 37.0514 57.7685 36.6243 57.5549L29.7487 54.1171C26.6841 52.5847 24.1067 50.2292 22.3054 47.3145C20.504 44.3998 19.55 41.0411 19.55 37.6147V26.6207C19.5499 25.7859 19.8047 24.971 20.2802 24.2849C20.7556 23.5987 21.4292 23.0741 22.2109 22.7811L36.5608 17.3999C37.4886 17.0521 38.5111 17.0521 39.4389 17.3999ZM37.9999 21.2395L23.65 26.6207V37.6147C23.6505 40.2794 24.3929 42.8914 25.7941 45.1579C27.1953 47.4245 29.1999 49.2561 31.5834 50.4476L37.9999 53.6599L44.4163 50.4517C46.8004 49.2599 48.8054 47.4276 50.2067 45.1603C51.6079 42.8929 52.35 40.2801 52.3497 37.6147V26.6207L37.9999 21.2395ZM37.9999 29.3C38.8749 29.2997 39.7271 29.5793 40.4319 30.098C41.1366 30.6167 41.6569 31.3473 41.9167 32.1829C42.1764 33.0185 42.162 33.9154 41.8756 34.7422C41.5891 35.569 41.0456 36.2825 40.3245 36.7783L40.0498 36.9526V43.6499C40.0493 44.1724 39.8492 44.6749 39.4905 45.0549C39.1318 45.4348 38.6416 45.6634 38.12 45.694C37.5984 45.7247 37.0848 45.555 36.6841 45.2196C36.2834 44.8843 36.0259 44.4086 35.9642 43.8897L35.9499 43.6499V36.9526C35.1673 36.5018 34.5555 35.8051 34.2094 34.9709C33.8634 34.1366 33.8025 33.2115 34.0362 32.3391C34.2699 31.4667 34.7851 30.6959 35.5018 30.1463C36.2186 29.5968 37.0967 29.2993 37.9999 29.3Z" fill="white"/>
</g>
<defs>
<clipPath id="clip0_253364_57">
<rect width="49.1995" height="49.1995" fill="white" transform="translate(13.4001 12.9001)"/>
</clipPath>
</defs>
</svg>
