<svg width="20" height="20" viewBox="0 0 20 20" fill="none" xmlns="http://www.w3.org/2000/svg">
<path d="M9.10328 3.48338C9.47012 2.74021 10.5299 2.74021 10.8967 3.48338L12.3425 6.4125C12.4881 6.70735 12.7693 6.91181 13.0946 6.95937L16.3295 7.4322C17.1495 7.55204 17.4762 8.55988 16.8826 9.13804L14.5434 11.4164C14.3076 11.6462 14.1999 11.9773 14.2556 12.3018L14.8074 15.5194C14.9475 16.3363 14.09 16.9593 13.3564 16.5735L10.4654 15.0532C10.1741 14.9 9.82592 14.9 9.53454 15.0532L6.64362 16.5735C5.90999 16.9593 5.05244 16.3363 5.19256 15.5194L5.74441 12.3018C5.80007 11.9773 5.69241 11.6462 5.45653 11.4164L3.11734 9.13804C2.52374 8.55988 2.85053 7.55204 3.67044 7.4322L6.90536 6.95937C7.23071 6.91181 7.5119 6.70735 7.65744 6.4125L9.10328 3.48338Z" fill="#FF7E1E"/>
</svg>
