<svg width="76" height="75" viewBox="0 0 76 75" fill="none" xmlns="http://www.w3.org/2000/svg">
<circle cx="37.5" cy="37.5" r="37.5" transform="matrix(-1 0 0 1 75.4999 0)" fill="#FF7E1E"/>
<g clip-path="url(#clip0_253364_77)">
<path fill-rule="evenodd" clip-rule="evenodd" d="M15.8602 39.9599C13.5971 39.9599 12.5344 37.1629 14.2268 35.6623L36.3666 15.9825C36.8168 15.5827 37.3979 15.3619 38 15.3619C38.6021 15.3619 39.1832 15.5827 39.6334 15.9825L61.7732 35.6623C63.4657 37.1629 62.403 39.9599 60.1398 39.9599H57.6798V57.1797C57.6798 57.8321 57.4206 58.4578 56.9593 58.9192C56.498 59.3805 55.8723 59.6397 55.2198 59.6397H20.7802C20.1278 59.6397 19.5021 59.3805 19.0407 58.9192C18.5794 58.4578 18.3202 57.8321 18.3202 57.1797V39.9599H15.8602ZM30.6201 54.7197V42.4199C30.6201 41.7674 30.8793 41.1417 31.3406 40.6804C31.8019 40.2191 32.4276 39.9599 33.0801 39.9599H42.92C43.5724 39.9599 44.1981 40.2191 44.6594 40.6804C45.1208 41.1417 45.3799 41.7674 45.3799 42.4199V54.7197H52.7599V37.4999C52.7598 37.0623 52.8765 36.6325 53.0979 36.255C53.3193 35.8775 53.6374 35.5659 54.0194 35.3523L38 21.1091L21.9807 35.3523C22.3627 35.5659 22.6808 35.8775 22.9022 36.255C23.1236 36.6325 23.2402 37.0623 23.2402 37.4999V54.7197H30.6201ZM35.54 54.7197V44.8798H40.46V54.7197H35.54Z" fill="white"/>
</g>
<defs>
<clipPath id="clip0_253364_77">
<rect width="49.1995" height="49.1995" fill="white" transform="translate(13.4001 12.9001)"/>
</clipPath>
</defs>
</svg>
