<svg width="189" height="40" viewBox="0 0 189 40" fill="none" xmlns="http://www.w3.org/2000/svg">
<rect width="40" height="40" rx="2" fill="#FF7E1E"/>
<path d="M19.4595 7.56757L10.2102 16.8168V30.03C10.2102 30.7598 10.8018 31.3514 11.5315 31.3514H15.4955C16.2252 31.3514 16.8168 30.7598 16.8168 30.03V24.7447C16.8168 24.015 17.4084 23.4234 18.1381 23.4234H20.7808C21.5105 23.4234 22.1021 24.015 22.1021 24.7447V30.03C22.1021 30.7598 22.6937 31.3514 23.4234 31.3514H27.3874C28.1171 31.3514 28.7087 30.7598 28.7087 30.03V16.8168L19.4595 7.56757Z" fill="white"/>
<path d="M7.56757 19.4595L10.2102 16.8168M10.2102 16.8168L19.4595 7.56757L28.7087 16.8168M10.2102 16.8168V30.03C10.2102 30.7598 10.8018 31.3514 11.5315 31.3514H15.4955M28.7087 16.8168L31.3514 19.4595M28.7087 16.8168V30.03C28.7087 30.7598 28.1171 31.3514 27.3874 31.3514H23.4234M15.4955 31.3514C16.2252 31.3514 16.8168 30.7598 16.8168 30.03V24.7447C16.8168 24.015 17.4084 23.4234 18.1381 23.4234H20.7808C21.5105 23.4234 22.1021 24.015 22.1021 24.7447V30.03C22.1021 30.7598 22.6937 31.3514 23.4234 31.3514M15.4955 31.3514H23.4234" stroke="white" stroke-width="2" stroke-linecap="round" stroke-linejoin="round"/>
<path d="M57.752 28V11.2H64.808C65.848 11.2 66.76 11.384 67.544 11.752C68.344 12.104 68.96 12.616 69.392 13.288C69.84 13.96 70.064 14.76 70.064 15.688V15.952C70.064 17.008 69.808 17.856 69.296 18.496C68.8 19.12 68.192 19.56 67.472 19.816V20.2C68.08 20.232 68.568 20.44 68.936 20.824C69.304 21.192 69.488 21.728 69.488 22.432V28H66.872V22.792C66.872 22.36 66.76 22.016 66.536 21.76C66.312 21.504 65.952 21.376 65.456 21.376H60.344V28H57.752ZM60.344 19.024H64.52C65.448 19.024 66.168 18.792 66.68 18.328C67.192 17.848 67.448 17.2 67.448 16.384V16.192C67.448 15.376 67.192 14.736 66.68 14.272C66.184 13.792 65.464 13.552 64.52 13.552H60.344V19.024ZM78.4121 28.336C77.2121 28.336 76.1641 28.088 75.2681 27.592C74.3721 27.08 73.6681 26.368 73.1561 25.456C72.6601 24.528 72.4121 23.456 72.4121 22.24V21.952C72.4121 20.72 72.6601 19.648 73.1561 18.736C73.6521 17.808 74.3401 17.096 75.2201 16.6C76.1161 16.088 77.1481 15.832 78.3161 15.832C79.4521 15.832 80.4441 16.088 81.2921 16.6C82.1561 17.096 82.8281 17.792 83.3081 18.688C83.7881 19.584 84.0281 20.632 84.0281 21.832V22.768H74.9321C74.9641 23.808 75.3081 24.64 75.9641 25.264C76.6361 25.872 77.4681 26.176 78.4601 26.176C79.3881 26.176 80.0841 25.968 80.5481 25.552C81.0281 25.136 81.3961 24.656 81.6521 24.112L83.6921 25.168C83.4681 25.616 83.1401 26.088 82.7081 26.584C82.2921 27.08 81.7401 27.496 81.0521 27.832C80.3641 28.168 79.4841 28.336 78.4121 28.336ZM74.9561 20.872H81.5081C81.4441 19.976 81.1241 19.28 80.5481 18.784C79.9721 18.272 79.2201 18.016 78.2921 18.016C77.3641 18.016 76.6041 18.272 76.0121 18.784C75.4361 19.28 75.0841 19.976 74.9561 20.872ZM91.8517 28.336C90.3477 28.336 89.0997 28 88.1077 27.328C87.1157 26.656 86.5077 25.64 86.2837 24.28L88.5877 23.728C88.7157 24.384 88.9317 24.904 89.2357 25.288C89.5397 25.672 89.9157 25.944 90.3637 26.104C90.8277 26.264 91.3237 26.344 91.8517 26.344C92.6357 26.344 93.2357 26.192 93.6517 25.888C94.0837 25.584 94.2997 25.192 94.2997 24.712C94.2997 24.232 94.0997 23.88 93.6997 23.656C93.2997 23.432 92.7077 23.248 91.9237 23.104L91.1077 22.96C90.3077 22.816 89.5797 22.608 88.9237 22.336C88.2677 22.064 87.7477 21.688 87.3637 21.208C86.9797 20.728 86.7877 20.112 86.7877 19.36C86.7877 18.24 87.2037 17.376 88.0357 16.768C88.8677 16.144 89.9717 15.832 91.3477 15.832C92.6757 15.832 93.7637 16.136 94.6117 16.744C95.4757 17.336 96.0357 18.144 96.2917 19.168L93.9877 19.816C93.8437 19.096 93.5397 18.592 93.0757 18.304C92.6117 18 92.0357 17.848 91.3477 17.848C90.6757 17.848 90.1477 17.976 89.7637 18.232C89.3797 18.472 89.1877 18.816 89.1877 19.264C89.1877 19.744 89.3717 20.096 89.7397 20.32C90.1237 20.544 90.6357 20.712 91.2757 20.824L92.1157 20.968C92.9637 21.112 93.7397 21.312 94.4437 21.568C95.1477 21.824 95.6997 22.192 96.0997 22.672C96.5157 23.152 96.7237 23.792 96.7237 24.592C96.7237 25.776 96.2837 26.696 95.4037 27.352C94.5237 28.008 93.3397 28.336 91.8517 28.336ZM99.6131 28V16.168H102.085V28H99.6131ZM100.861 14.56C100.381 14.56 99.9731 14.408 99.6371 14.104C99.3171 13.784 99.1571 13.376 99.1571 12.88C99.1571 12.384 99.3171 11.984 99.6371 11.68C99.9731 11.36 100.381 11.2 100.861 11.2C101.357 11.2 101.765 11.36 102.085 11.68C102.405 11.984 102.565 12.384 102.565 12.88C102.565 13.376 102.405 13.784 102.085 14.104C101.765 14.408 101.357 14.56 100.861 14.56ZM110.65 28.336C109.674 28.336 108.77 28.096 107.938 27.616C107.106 27.136 106.434 26.448 105.922 25.552C105.426 24.64 105.178 23.544 105.178 22.264V21.904C105.178 20.64 105.426 19.552 105.922 18.64C106.418 17.728 107.082 17.032 107.914 16.552C108.746 16.072 109.658 15.832 110.65 15.832C111.418 15.832 112.058 15.928 112.57 16.12C113.098 16.312 113.53 16.56 113.866 16.864C114.202 17.152 114.458 17.456 114.634 17.776H115.018V11.2H117.49V28H115.066V26.32H114.682C114.378 26.832 113.914 27.296 113.29 27.712C112.682 28.128 111.802 28.336 110.65 28.336ZM111.346 26.176C112.418 26.176 113.298 25.832 113.986 25.144C114.69 24.456 115.042 23.472 115.042 22.192V21.976C115.042 20.712 114.698 19.736 114.01 19.048C113.322 18.36 112.434 18.016 111.346 18.016C110.29 18.016 109.41 18.36 108.706 19.048C108.018 19.736 107.674 20.712 107.674 21.976V22.192C107.674 23.472 108.018 24.456 108.706 25.144C109.41 25.832 110.29 26.176 111.346 26.176ZM126.553 28.336C125.353 28.336 124.305 28.088 123.409 27.592C122.513 27.08 121.809 26.368 121.297 25.456C120.801 24.528 120.553 23.456 120.553 22.24V21.952C120.553 20.72 120.801 19.648 121.297 18.736C121.793 17.808 122.481 17.096 123.361 16.6C124.257 16.088 125.289 15.832 126.457 15.832C127.593 15.832 128.585 16.088 129.433 16.6C130.297 17.096 130.969 17.792 131.449 18.688C131.929 19.584 132.169 20.632 132.169 21.832V22.768H123.073C123.105 23.808 123.449 24.64 124.105 25.264C124.777 25.872 125.609 26.176 126.601 26.176C127.529 26.176 128.225 25.968 128.689 25.552C129.169 25.136 129.537 24.656 129.793 24.112L131.833 25.168C131.609 25.616 131.281 26.088 130.849 26.584C130.433 27.08 129.881 27.496 129.193 27.832C128.505 28.168 127.625 28.336 126.553 28.336ZM123.097 20.872H129.649C129.585 19.976 129.265 19.28 128.689 18.784C128.113 18.272 127.361 18.016 126.433 18.016C125.505 18.016 124.745 18.272 124.153 18.784C123.577 19.28 123.225 19.976 123.097 20.872ZM135.144 28V16.168H137.568V17.944H137.952C138.176 17.464 138.576 17.016 139.152 16.6C139.728 16.184 140.584 15.976 141.72 15.976C142.616 15.976 143.408 16.176 144.096 16.576C144.8 16.976 145.352 17.544 145.752 18.28C146.152 19 146.352 19.872 146.352 20.896V28H143.88V21.088C143.88 20.064 143.624 19.312 143.112 18.832C142.6 18.336 141.896 18.088 141 18.088C139.976 18.088 139.152 18.424 138.528 19.096C137.92 19.768 137.616 20.744 137.616 22.024V28H135.144ZM155.406 28.336C154.27 28.336 153.238 28.096 152.31 27.616C151.398 27.136 150.67 26.44 150.126 25.528C149.598 24.616 149.334 23.52 149.334 22.24V21.928C149.334 20.648 149.598 19.56 150.126 18.664C150.67 17.752 151.398 17.056 152.31 16.576C153.238 16.08 154.27 15.832 155.406 15.832C156.542 15.832 157.51 16.04 158.31 16.456C159.11 16.872 159.75 17.424 160.23 18.112C160.726 18.8 161.046 19.56 161.19 20.392L158.79 20.896C158.71 20.368 158.542 19.888 158.286 19.456C158.03 19.024 157.67 18.68 157.206 18.424C156.742 18.168 156.158 18.04 155.454 18.04C154.766 18.04 154.142 18.2 153.582 18.52C153.038 18.824 152.606 19.272 152.286 19.864C151.966 20.44 151.806 21.144 151.806 21.976V22.192C151.806 23.024 151.966 23.736 152.286 24.328C152.606 24.92 153.038 25.368 153.582 25.672C154.142 25.976 154.766 26.128 155.454 26.128C156.494 26.128 157.286 25.864 157.83 25.336C158.374 24.792 158.718 24.104 158.862 23.272L161.262 23.824C161.07 24.64 160.726 25.392 160.23 26.08C159.75 26.768 159.11 27.32 158.31 27.736C157.51 28.136 156.542 28.336 155.406 28.336ZM164.113 28V16.168H166.585V28H164.113ZM165.361 14.56C164.881 14.56 164.473 14.408 164.137 14.104C163.817 13.784 163.657 13.376 163.657 12.88C163.657 12.384 163.817 11.984 164.137 11.68C164.473 11.36 164.881 11.2 165.361 11.2C165.857 11.2 166.265 11.36 166.585 11.68C166.905 11.984 167.065 12.384 167.065 12.88C167.065 13.376 166.905 13.784 166.585 14.104C166.265 14.408 165.857 14.56 165.361 14.56ZM173.926 28.336C173.078 28.336 172.318 28.192 171.646 27.904C170.99 27.616 170.462 27.192 170.062 26.632C169.678 26.072 169.486 25.392 169.486 24.592C169.486 23.776 169.678 23.104 170.062 22.576C170.462 22.032 170.998 21.624 171.67 21.352C172.358 21.08 173.134 20.944 173.998 20.944H177.598V20.176C177.598 19.488 177.39 18.936 176.974 18.52C176.558 18.104 175.918 17.896 175.054 17.896C174.206 17.896 173.558 18.096 173.11 18.496C172.662 18.896 172.366 19.416 172.222 20.056L169.918 19.312C170.11 18.672 170.414 18.096 170.83 17.584C171.262 17.056 171.83 16.632 172.534 16.312C173.238 15.992 174.086 15.832 175.078 15.832C176.614 15.832 177.822 16.224 178.702 17.008C179.582 17.792 180.022 18.904 180.022 20.344V25.216C180.022 25.696 180.246 25.936 180.694 25.936H181.702V28H179.854C179.294 28 178.838 27.856 178.486 27.568C178.134 27.28 177.958 26.888 177.958 26.392V26.32H177.598C177.47 26.56 177.278 26.84 177.022 27.16C176.766 27.48 176.39 27.76 175.894 28C175.398 28.224 174.742 28.336 173.926 28.336ZM174.286 26.296C175.278 26.296 176.078 26.016 176.686 25.456C177.294 24.88 177.598 24.096 177.598 23.104V22.864H174.142C173.486 22.864 172.958 23.008 172.558 23.296C172.158 23.568 171.958 23.976 171.958 24.52C171.958 25.064 172.166 25.496 172.582 25.816C172.998 26.136 173.566 26.296 174.286 26.296ZM184.105 28V11.2H186.577V28H184.105Z" fill="white"/>
</svg>
